<svg width="24" height="24" viewBox="0 0 24 24" fill="none" xmlns="http://www.w3.org/2000/svg">
<path d="M6.18175 14.9489L1.5458 10.3163C1.32767 10.0985 1.16709 9.83004 1.07849 9.53493C0.989894 9.23981 0.976055 8.92732 1.03822 8.62554C1.09844 8.29372 1.24625 7.984 1.46636 7.72837C1.68648 7.47275 1.97091 7.2805 2.29026 7.1715L20.4449 1.11861C20.7851 0.992285 21.1544 0.966221 21.5089 1.04352C21.8635 1.12081 22.1884 1.29821 22.445 1.55463C22.7016 1.81106 22.8791 2.13572 22.9565 2.49002C23.0338 2.84432 23.0077 3.21337 22.8813 3.55329L16.8241 21.695C16.7223 22.0035 16.5427 22.2807 16.3027 22.4998C16.0627 22.7189 15.7703 22.8726 15.4536 22.9462C15.139 23.0235 14.8095 23.0174 14.4979 22.9284C14.1863 22.8395 13.9034 22.6708 13.6771 22.439L9.98864 18.77L6.02947 20.8159L6.18175 14.9489ZM6.18175 14.9489L22.3399 1.49057" stroke="#ED3E26" stroke-linecap="round" stroke-linejoin="round"/>
</svg>
